<svg xmlns="http://www.w3.org/2000/svg" viewBox="0 0 800 600" width="800" height="600"><defs><linearGradient id="g" x1="0" y1="0" x2="1" y2="1"><stop offset="0" stop-color="#FEEFE4"/><stop offset="1" stop-color="#FAD9C3"/></linearGradient></defs><rect width="800" height="600" fill="url(#g)"/><circle cx="565" cy="103" r="26" fill="#fff" opacity="0.32"/><circle cx="411" cy="117" r="63" fill="#fff" opacity="0.25"/><circle cx="300" cy="295" r="38" fill="#fff" opacity="0.32"/><circle cx="267" cy="252" r="27" fill="#fff" opacity="0.18"/><circle cx="541" cy="6" r="28" fill="#fff" opacity="0.25"/><circle cx="772" cy="269" r="58" fill="#fff" opacity="0.32"/><circle cx="438" cy="217" r="72" fill="#fff" opacity="0.25"/><circle cx="71" cy="19" r="76" fill="#fff" opacity="0.32"/><circle cx="190" cy="178" r="62" fill="#fff" opacity="0.32"/><rect y="468" width="800" height="132" fill="#fff" opacity=".35"/><ellipse cx="400" cy="449" rx="214" ry="19" fill="#000" opacity=".06"/><g transform="translate(167.5 107.6) scale(3.875)"><circle cx="46" cy="26" r="11" fill="#FFF3C4"/><circle cx="60" cy="18" r="12" fill="#FFF7D6"/><circle cx="74" cy="26" r="11" fill="#FFF3C4"/><circle cx="54" cy="32" r="10" fill="#FFF7D6"/><circle cx="68" cy="32" r="10" fill="#FFEFB0"/><path d="M38 34 H82 L76 86 H44 Z" fill="#FFFFFF"/><path d="M44 34 L48 86 M56 34 L57 86 M64 34 L63 86 M76 34 L72 86" stroke="#E0556F" stroke-width="5"/></g><g transform="translate(20 546)"><rect width="175" height="34" rx="17" fill="#fff" opacity=".85"/><text x="17" y="22.5" font-family="-apple-system,Helvetica,Arial,sans-serif" font-size="14" font-weight="600" fill="#6e6e73">Placeholder photo · Popcorn</text></g></svg>