<svg xmlns="http://www.w3.org/2000/svg" viewBox="0 0 800 600" width="800" height="600"><defs><linearGradient id="g" x1="0" y1="0" x2="1" y2="1"><stop offset="0" stop-color="#EFECF9"/><stop offset="1" stop-color="#DCD6F1"/></linearGradient></defs><rect width="800" height="600" fill="url(#g)"/><circle cx="372" cy="1" r="24" fill="#fff" opacity="0.18"/><circle cx="548" cy="79" r="32" fill="#fff" opacity="0.25"/><circle cx="797" cy="10" r="51" fill="#fff" opacity="0.25"/><circle cx="49" cy="162" r="64" fill="#fff" opacity="0.18"/><circle cx="526" cy="416" r="42" fill="#fff" opacity="0.18"/><circle cx="51" cy="72" r="35" fill="#fff" opacity="0.18"/><circle cx="185" cy="248" r="56" fill="#fff" opacity="0.25"/><circle cx="680" cy="157" r="26" fill="#fff" opacity="0.25"/><circle cx="254" cy="210" r="63" fill="#fff" opacity="0.18"/><rect y="468" width="800" height="132" fill="#fff" opacity=".35"/><ellipse cx="400" cy="449" rx="214" ry="19" fill="#000" opacity=".06"/><g transform="translate(167.5 107.6) scale(3.875)"><path d="M60 10 L108 44 H12 Z" fill="#FFFFFF" stroke="#F28CB5" stroke-width="3" stroke-linejoin="round"/><path d="M12 44 q8 10 16 0 q8 10 16 0 q8 10 16 0 q8 10 16 0 q8 10 16 0 q8 10 16 0" fill="#F7A8C8"/><path d="M16 50V84M104 50V84M60 50V84" stroke="#F28CB5" stroke-width="3"/><circle cx="60" cy="9" r="4" fill="#F5B287"/><rect x="6" y="82" width="108" height="5" rx="2.5" fill="#8CC4E6"/></g><g transform="translate(20 546)"><rect width="200" height="34" rx="17" fill="#fff" opacity=".85"/><text x="17" y="22.5" font-family="-apple-system,Helvetica,Arial,sans-serif" font-size="14" font-weight="600" fill="#6e6e73">Placeholder photo · Party tent</text></g></svg>