<svg xmlns="http://www.w3.org/2000/svg" viewBox="0 0 800 600" width="800" height="600"><defs><linearGradient id="g" x1="0" y1="0" x2="1" y2="1"><stop offset="0" stop-color="#FDE6EF"/><stop offset="1" stop-color="#F9CFE0"/></linearGradient></defs><rect width="800" height="600" fill="url(#g)"/><circle cx="797" cy="138" r="80" fill="#fff" opacity="0.18"/><circle cx="751" cy="314" r="69" fill="#fff" opacity="0.25"/><circle cx="71" cy="139" r="72" fill="#fff" opacity="0.18"/><circle cx="155" cy="413" r="49" fill="#fff" opacity="0.18"/><circle cx="482" cy="268" r="74" fill="#fff" opacity="0.32"/><circle cx="165" cy="386" r="53" fill="#fff" opacity="0.32"/><circle cx="729" cy="316" r="51" fill="#fff" opacity="0.25"/><circle cx="185" cy="33" r="48" fill="#fff" opacity="0.25"/><circle cx="644" cy="365" r="73" fill="#fff" opacity="0.25"/><rect y="468" width="800" height="132" fill="#fff" opacity=".35"/><ellipse cx="400" cy="449" rx="214" ry="19" fill="#000" opacity=".06"/><g transform="translate(167.5 107.6) scale(3.875)"><rect x="18" y="38" width="84" height="40" rx="8" fill="#F7A8C8"/><rect x="12" y="24" width="20" height="54" rx="9" fill="#F28CB5"/><rect x="88" y="24" width="20" height="54" rx="9" fill="#F28CB5"/><rect x="49" y="16" width="22" height="34" rx="9" fill="#F28CB5"/><circle cx="22" cy="22" r="7" fill="#8CC4E6"/><circle cx="98" cy="22" r="7" fill="#8CC4E6"/><circle cx="60" cy="14" r="7" fill="#F5B287"/><path d="M46 78v-13a14 14 0 0 1 28 0v13z" fill="#FFFFFF"/><rect x="8" y="76" width="104" height="9" rx="4.5" fill="#8CC4E6"/></g><g transform="translate(20 546)"><rect width="225" height="34" rx="17" fill="#fff" opacity=".85"/><text x="17" y="22.5" font-family="-apple-system,Helvetica,Arial,sans-serif" font-size="14" font-weight="600" fill="#6e6e73">Placeholder photo · Bounce castle</text></g></svg>