<svg xmlns="http://www.w3.org/2000/svg" viewBox="0 0 800 600" width="800" height="600"><defs><linearGradient id="g" x1="0" y1="0" x2="1" y2="1"><stop offset="0" stop-color="#FEEFE4"/><stop offset="1" stop-color="#FAD9C3"/></linearGradient></defs><rect width="800" height="600" fill="url(#g)"/><circle cx="256" cy="26" r="72" fill="#fff" opacity="0.32"/><circle cx="599" cy="134" r="52" fill="#fff" opacity="0.25"/><circle cx="62" cy="318" r="28" fill="#fff" opacity="0.32"/><circle cx="631" cy="168" r="27" fill="#fff" opacity="0.18"/><circle cx="766" cy="359" r="41" fill="#fff" opacity="0.32"/><circle cx="60" cy="162" r="55" fill="#fff" opacity="0.18"/><circle cx="372" cy="181" r="46" fill="#fff" opacity="0.32"/><circle cx="603" cy="247" r="29" fill="#fff" opacity="0.32"/><circle cx="470" cy="81" r="64" fill="#fff" opacity="0.32"/><rect y="468" width="800" height="132" fill="#fff" opacity=".35"/><ellipse cx="400" cy="431" rx="214" ry="19" fill="#000" opacity=".06"/><g transform="translate(167.5 89.6) scale(3.875)"><path d="M60 10 L108 44 H12 Z" fill="#FFFFFF" stroke="#F28CB5" stroke-width="3" stroke-linejoin="round"/><path d="M12 44 q8 10 16 0 q8 10 16 0 q8 10 16 0 q8 10 16 0 q8 10 16 0 q8 10 16 0" fill="#F7A8C8"/><path d="M16 50V84M104 50V84M60 50V84" stroke="#F28CB5" stroke-width="3"/><circle cx="60" cy="9" r="4" fill="#F5B287"/><rect x="6" y="82" width="108" height="5" rx="2.5" fill="#8CC4E6"/></g><ellipse cx="144" cy="438" rx="69" ry="6" fill="#000" opacity=".06"/><g transform="translate(69.0 327.8) scale(1.250)"><g stroke="#D9A441" stroke-width="3.5" fill="none" stroke-linecap="round"><path d="M40 8v76M80 8v76M40 14h40M40 24h40M40 34h40M50 14v34M60 14v34M70 14v34M44 84l-4-24M76 84l4-24"/></g><rect x="34" y="48" width="52" height="10" rx="4" fill="#FFFFFF" stroke="#D9A441" stroke-width="3"/></g><ellipse cx="656" cy="438" rx="69" ry="6" fill="#000" opacity=".06"/><g transform="translate(581.0 327.8) scale(1.250)"><g stroke="#D9A441" stroke-width="3.5" fill="none" stroke-linecap="round"><path d="M40 8v76M80 8v76M40 14h40M40 24h40M40 34h40M50 14v34M60 14v34M70 14v34M44 84l-4-24M76 84l4-24"/></g><rect x="34" y="48" width="52" height="10" rx="4" fill="#FFFFFF" stroke="#D9A441" stroke-width="3"/></g><g transform="translate(20 546)"><rect width="249" height="34" rx="17" fill="#fff" opacity=".85"/><text x="17" y="22.5" font-family="-apple-system,Helvetica,Arial,sans-serif" font-size="14" font-weight="600" fill="#6e6e73">Placeholder photo · Dreamland Deluxe</text></g></svg>